<?xml version="1.0" standalone="no"?>
<!DOCTYPE svg PUBLIC "-//W3C//DTD SVG 20010904//EN"
 "http://www.w3.org/TR/2001/REC-SVG-20010904/DTD/svg10.dtd">
<svg version="1.0" xmlns="http://www.w3.org/2000/svg"
 width="500.000000pt" height="500.000000pt" viewBox="0 0 500.000000 500.000000"
 preserveAspectRatio="xMidYMid meet">
<metadata>
Created by potrace 1.11, written by Peter Selinger 2001-2013
</metadata>
<g transform="translate(0.000000,500.000000) scale(0.100000,-0.100000)"
fill="#000000" stroke="none">
<path d="M2308 4995 c-2 -1 -34 -6 -73 -9 -255 -24 -559 -111 -812 -231 -269
-128 -480 -279 -703 -504 -196 -198 -339 -399 -465 -656 -62 -125 -155 -369
-169 -441 -2 -10 -11 -46 -19 -79 -22 -85 -40 -192 -57 -340 -11 -97 -5 -453
9 -550 17 -113 21 -138 26 -155 2 -8 6 -26 9 -40 42 -240 158 -534 309 -785
138 -231 384 -509 587 -667 387 -299 829 -477 1310 -527 83 -8 465 -7 505 2
11 2 47 8 80 12 63 7 72 9 150 25 28 6 61 12 74 15 55 10 213 59 316 98 491
183 925 534 1215 982 61 95 174 308 214 405 19 48 95 270 101 298 2 9 13 60
25 112 12 52 23 111 26 130 2 19 7 46 9 60 34 175 24 598 -20 825 -14 77 -68
281 -76 290 -5 5 -9 16 -9 25 0 29 -90 242 -151 359 -87 166 -198 332 -318
476 -32 38 -211 217 -271 271 -133 120 -365 270 -560 363 -241 114 -462 179
-755 222 -70 10 -498 22 -507 14z m387 -490 c213 -42 325 -152 341 -335 6 -58
4 -71 -9 -76 -9 -3 -35 -30 -58 -60 -40 -53 -76 -80 -116 -88 -10 -1 -40 -13
-66 -25 -87 -40 -218 -16 -352 65 -76 45 -138 96 -171 140 -24 31 -26 42 -27
128 l0 94 56 63 c78 88 134 109 272 104 55 -2 114 -7 130 -10z m20 -1002 c147
-77 211 -301 164 -568 -10 -60 -21 -128 -23 -151 -3 -22 -13 -83 -22 -135 -11
-60 -18 -152 -19 -254 0 -88 -4 -173 -8 -190 -6 -29 -16 -86 -22 -132 -2 -13
-6 -40 -9 -60 -28 -178 -28 -898 -1 -943 2 -3 7 -33 10 -65 4 -33 9 -69 11
-80 2 -11 7 -45 10 -75 20 -185 9 -251 -50 -316 -56 -62 -121 -84 -237 -80
-105 3 -175 33 -245 104 -53 54 -123 192 -150 297 -26 97 -26 327 0 540 17
141 24 279 31 630 3 154 8 318 10 365 7 123 15 241 20 270 2 14 7 52 10 85 10
80 11 86 31 185 25 125 25 164 -1 280 -9 41 -18 127 -16 145 3 24 65 91 101
110 14 7 55 21 90 30 36 9 70 21 75 27 6 6 49 8 105 6 71 -3 105 -9 135 -25z"/>
</g>
</svg>
